<svg width="56" height="56" viewBox="0 0 56 56" fill="none" xmlns="http://www.w3.org/2000/svg">
<g clip-path="url(#clip0_2115_15527)">
<path d="M54.04 27.1841L48.9084 18.9735C48.627 18.5233 48.1337 18.2499 47.6029 18.2499H3.26556C2.41536 18.2499 1.72607 18.9392 1.72607 19.7894V36.2106C1.72607 37.0608 2.41536 37.7501 3.26556 37.7501H47.6029C48.1337 37.7501 48.627 37.4767 48.9084 37.0265L54.04 28.8159C54.352 28.3168 54.352 27.6834 54.04 27.1841ZM4.80505 34.6712V21.329H15.9598L20.1292 28.0001L15.9598 34.6712H4.80505ZM19.5907 34.6712L23.2502 28.816C23.5622 28.3168 23.5622 27.6834 23.2502 27.1842L19.5907 21.329H31.3548L35.5242 28.0001L31.3548 34.6712H19.5907ZM46.7497 34.6712H34.9856L38.6451 28.816C38.9571 28.3168 38.9571 27.6834 38.6451 27.1842L34.9856 21.329H46.7497L50.9191 28.0001L46.7497 34.6712Z" fill="#4A3AFF"/>
</g>
<defs>
<clipPath id="clip0_2115_15527">
<rect width="56" height="56" fill="white"/>
</clipPath>
</defs>
</svg>
